<?xml version="1.0" standalone="no"?>
<!DOCTYPE svg PUBLIC "-//W3C//DTD SVG 20010904//EN"
 "http://www.w3.org/TR/2001/REC-SVG-20010904/DTD/svg10.dtd">
<svg version="1.0" xmlns="http://www.w3.org/2000/svg"
 width="1080.000000pt" height="1080.000000pt" viewBox="0 0 1080.000000 1080.000000"
 preserveAspectRatio="xMidYMid meet">
<metadata>
Created by potrace 1.14, written by Peter Selinger 2001-2017
</metadata>
<g transform="translate(0.000000,1080.000000) scale(0.100000,-0.100000)"
fill="#000000" stroke="none">
<path d="M5830 10541 c0 -7 -6 -11 -13 -8 -9 3 -13 -6 -14 -29 0 -19 4 -34 11
-34 7 0 7 -3 1 -8 -5 -4 -11 -17 -12 -28 -2 -16 3 -21 20 -20 18 1 22 7 23 44
0 24 -4 42 -10 42 -6 0 -5 4 3 9 10 7 11 13 2 27 -6 12 -11 14 -11 5z"/>
<path d="M5938 10534 c10 -5 10 -9 1 -20 -9 -11 -9 -18 -1 -26 8 -8 8 -17 1
-30 -8 -15 -6 -23 12 -39 20 -17 41 -28 26 -13 -3 4 -2 15 4 25 7 14 6 19 -3
19 -10 0 -10 2 1 9 9 6 10 11 2 15 -7 5 -8 13 -2 25 12 22 2 35 -29 38 -14 1
-19 0 -12 -3z"/>
<path d="M5135 10519 c4 -5 3 -9 -2 -9 -4 0 -6 -22 -5 -50 4 -51 7 -55 37 -44
13 5 14 8 3 15 -10 7 -10 9 2 9 13 0 13 1 0 10 -12 8 -12 10 -1 10 11 0 11 3
1 15 -10 12 -10 15 1 15 11 0 11 2 -1 10 -12 8 -12 10 -1 10 20 0 8 10 -18 15
-12 2 -19 0 -16 -6z"/>
<path d="M6079 10508 c-1 -2 -3 -15 -5 -31 -2 -19 1 -25 9 -21 8 5 8 3 0 -7
-16 -16 -17 -39 -2 -39 5 0 7 6 4 13 -4 6 1 3 9 -7 14 -17 16 -18 16 -3 0 9 0
20 -1 23 0 4 5 11 13 15 10 7 10 9 0 9 -7 0 -11 4 -8 9 9 14 -4 41 -20 41 -8
0 -15 -1 -15 -2z"/>
<path d="M5710 10484 c-14 -7 -19 -14 -12 -14 7 0 10 -4 7 -10 -11 -17 -43
-11 -41 7 0 10 -6 18 -14 18 -25 2 -32 -6 -18 -23 8 -9 8 -13 1 -9 -7 5 -9 0
-6 -14 4 -12 11 -18 20 -15 8 3 11 1 8 -4 -12 -20 55 -14 71 6 6 7 13 12 15 9
3 -2 5 5 6 15 1 11 -3 20 -9 20 -5 0 -8 7 -4 15 3 8 4 15 3 14 -1 -1 -13 -7
-27 -15z"/>
<path d="M5221 10468 c-7 -12 -8 -18 -1 -18 6 0 10 -7 8 -16 -5 -26 72 -36 94
-13 12 13 14 22 10 56 -3 20 -37 7 -36 -14 1 -15 -4 -19 -17 -16 -10 3 -18 8
-17 12 4 32 -23 38 -41 9z"/>
<path d="M5396 10482 c-3 -3 -1 -11 5 -18 7 -8 7 -14 -1 -19 -8 -5 -8 -11 1
-21 12 -15 38 -19 40 -6 0 4 2 15 4 25 2 9 -1 17 -6 17 -5 0 -8 5 -6 11 2 12
-28 21 -37 11z"/>
<path d="M5530 10456 c4 -19 6 -37 3 -39 -2 -3 3 -7 12 -11 9 -3 13 -2 10 4
-3 6 1 13 9 16 19 7 18 51 -1 58 -7 3 -13 0 -13 -6 0 -7 -4 -7 -14 1 -12 10
-13 6 -6 -23z"/>
<path d="M6175 10482 c-14 -10 -17 -32 -5 -32 5 0 7 -7 4 -14 -7 -17 57 -39
67 -23 3 5 9 8 13 8 20 -3 24 1 21 20 -5 26 -15 38 -15 18 0 -11 -2 -11 -10 1
-8 13 -10 12 -10 -3 0 -10 -4 -16 -9 -13 -5 4 -11 3 -14 -1 -2 -5 -3 -3 -1 4
4 15 -29 44 -41 35z"/>
<path d="M6313 10426 c0 -15 42 -15 55 -1 4 4 -3 5 -15 2 -13 -3 -23 -1 -23 4
0 5 -4 9 -8 9 -5 0 -9 -6 -9 -14z"/>
<path d="M5082 10374 c-1 -13 2 -24 6 -24 4 0 7 -27 7 -60 0 -33 -3 -60 -7
-60 -5 0 -6 -10 -4 -22 4 -22 27 -27 34 -7 2 5 7 7 10 5 4 -2 6 18 6 45 -1 30
3 49 10 49 7 0 6 4 -2 9 -8 4 -13 11 -13 15 4 29 -2 46 -22 59 -22 14 -23 13
-25 -9z"/>
<path d="M5460 10393 c0 -7 -7 -13 -15 -13 -15 0 -19 -11 -16 -39 2 -7 -2 -11
-7 -7 -5 3 -9 -1 -9 -9 0 -8 5 -15 10 -15 5 0 3 -7 -4 -17 -11 -13 -11 -17 -1
-21 10 -3 10 -7 0 -20 -11 -13 -11 -14 2 -7 13 8 13 7 1 -8 -9 -11 -10 -17 -2
-17 6 0 11 -7 11 -15 0 -15 4 -17 53 -20 40 -3 60 27 57 85 -5 105 -12 121
-49 115 -9 -1 -19 3 -23 9 -5 8 -8 7 -8 -1z m36 -45 c5 -7 3 -8 -6 -3 -10 6
-11 4 -4 -6 5 -8 7 -22 6 -31 -2 -10 2 -18 8 -18 6 0 8 -5 3 -12 -7 -13 -9
-18 -11 -50 -1 -10 -7 -18 -13 -18 -5 0 -7 5 -4 10 3 6 1 10 -5 10 -6 0 -8 5
-5 10 3 6 0 10 -7 10 -9 0 -9 3 2 10 12 8 13 13 3 29 -8 13 -9 22 -3 26 6 3
10 15 10 26 0 21 15 25 26 7z"/>
<path d="M5755 10384 c-6 -8 -17 -16 -25 -17 -38 -6 -55 -37 -20 -37 22 0 22
1 24 -85 1 -59 3 -61 37 -56 6 0 8 10 4 22 -5 16 -4 19 5 14 9 -6 11 -4 5 6
-13 20 -13 49 -1 49 7 0 7 3 1 8 -15 11 -19 56 -4 47 8 -6 10 -4 4 4 -4 7 -10
23 -14 37 -5 20 -8 22 -16 8z"/>
<path d="M6163 10393 c4 -3 -2 -13 -14 -21 -11 -8 -23 -12 -26 -8 -5 5 -33
-18 -33 -28 0 -3 11 -6 24 -6 24 0 43 -34 25 -46 -5 -3 -5 -13 1 -24 7 -13 7
-21 0 -25 -6 -4 -7 -12 -3 -18 4 -7 8 -16 8 -21 0 -15 33 -15 39 0 3 8 1 14
-4 14 -6 0 -6 9 0 25 6 16 6 25 -1 25 -6 0 -6 6 0 18 5 10 6 24 1 32 -5 8 -5
21 0 29 8 16 -4 61 -16 61 -4 0 -4 -3 -1 -7z"/>
<path d="M6272 10385 c-8 -14 -11 -15 -12 -5 0 9 -5 7 -16 -8 -10 -15 -15 -37
-12 -63 2 -21 0 -39 -3 -39 -8 0 0 -37 15 -65 8 -14 20 -20 41 -19 52 2 55 4
55 23 0 11 5 23 11 27 8 4 7 9 -2 15 -10 6 -7 8 8 6 14 -1 19 -5 13 -12 -5 -6
-5 -17 0 -25 5 -8 7 -17 5 -20 -2 -3 8 -10 21 -17 14 -7 21 -7 18 -1 -4 6 1 8
12 4 23 -7 37 2 54 33 10 19 10 22 -2 15 -10 -6 -11 -5 -1 7 16 20 17 31 1 40
-7 5 -8 9 -2 9 20 0 14 57 -9 76 -31 27 -78 29 -84 4 -3 -11 -10 -20 -15 -20
-5 0 -7 -3 -5 -7 3 -5 1 -17 -4 -28 -6 -16 -8 -11 -8 18 -1 23 -5 36 -11 32
-5 -3 -10 1 -10 11 0 11 -6 15 -20 11 -10 -3 -21 0 -23 6 -2 6 -9 3 -15 -8z
m170 -39 c6 4 5 -2 -1 -15 -9 -16 -9 -21 1 -21 10 0 10 -2 -1 -9 -10 -6 -10
-10 -1 -16 9 -6 9 -10 -1 -16 -10 -6 -10 -9 -2 -9 10 0 10 -6 1 -25 -11 -25
-34 -24 -24 1 3 8 0 14 -7 14 -8 0 -6 4 3 10 9 6 10 10 3 10 -8 0 -9 9 -3 30
6 21 5 30 -3 31 -9 0 -8 2 1 6 6 2 13 12 13 21 1 15 2 15 6 -1 2 -9 9 -14 15
-11z m-136 -7 c3 -6 1 -16 -5 -22 -7 -7 -7 -14 0 -23 7 -9 7 -19 -1 -35 -8
-14 -8 -19 -1 -15 17 11 13 -10 -4 -24 -18 -15 -17 -20 -20 63 -2 50 1 67 11
67 7 0 16 -5 20 -11z m74 -53 c0 -9 -30 -14 -35 -6 -4 6 3 10 14 10 12 0 21
-2 21 -4z"/>
<path d="M5202 10383 c-6 -2 -10 -9 -6 -14 4 -8 -17 -14 -38 -10 -5 0 -8 -6
-8 -14 0 -14 12 -19 33 -16 6 1 12 -32 8 -53 -1 -5 4 -13 11 -17 10 -7 10 -9
0 -9 -20 0 -11 -58 10 -63 11 -3 18 0 18 10 0 8 5 11 12 7 7 -5 8 -3 3 6 -11
18 -13 60 -3 60 4 0 8 5 8 11 0 5 -4 8 -8 5 -10 -6 -9 24 1 41 4 6 3 14 -3 18
-5 3 -10 15 -10 26 0 19 -5 22 -28 12z"/>
<path d="M5333 10384 c4 -4 -8 -16 -26 -27 -29 -18 -30 -20 -12 -27 11 -4 23
-6 26 -4 4 2 6 -28 5 -66 0 -39 2 -70 6 -70 3 0 14 -3 23 -6 10 -4 15 -2 13 7
-2 8 3 13 11 11 11 -2 12 0 4 10 -6 7 -10 46 -10 87 1 70 0 74 -23 83 -13 5
-21 6 -17 2z"/>
<path d="M5610 10374 c0 -8 -4 -12 -10 -9 -5 3 -10 1 -10 -6 0 -8 -5 -7 -17 2
-10 8 -14 9 -10 2 4 -6 3 -14 -3 -18 -5 -3 -10 -12 -10 -18 0 -7 4 -6 10 3 8
12 10 12 10 -5 0 -17 2 -17 10 -5 6 10 10 11 10 3 0 -19 2 -26 10 -49 5 -13 4
-26 -2 -32 -6 -6 -6 -12 2 -17 8 -5 8 -10 0 -20 -8 -10 -4 -14 15 -17 14 -3
26 -1 26 3 4 29 4 35 -6 41 -6 5 -5 8 4 8 10 0 11 4 3 13 -6 6 -10 17 -10 22
0 6 4 16 10 23 7 8 7 12 -2 12 -10 0 -10 3 -1 14 9 10 9 16 1 21 -8 5 -8 10 0
20 8 9 6 14 -6 19 -22 9 -24 8 -24 -10z"/>
<path d="M5842 10374 c-23 -16 -32 -41 -9 -27 6 4 4 -6 -7 -21 -10 -16 -13
-25 -7 -21 14 8 11 -31 -3 -54 -7 -10 -6 -12 4 -6 8 5 11 3 8 -6 -7 -20 10
-49 28 -49 9 0 12 -5 8 -12 -5 -10 -4 -10 6 -1 7 6 19 9 26 6 8 -3 14 1 14 8
0 11 3 11 10 -1 9 -13 10 -13 11 0 1 8 1 18 0 23 0 4 3 7 7 7 4 0 8 27 7 60
-1 56 1 60 19 54 34 -11 50 -32 36 -49 -7 -8 -8 -15 -3 -15 5 0 8 -18 7 -39
-2 -45 14 -58 43 -35 10 9 12 12 4 8 -10 -5 -11 -1 -6 15 4 13 1 29 -7 38 -11
14 -11 16 1 8 11 -6 13 -1 9 23 -2 17 0 34 6 36 7 3 6 5 -1 5 -7 1 -10 8 -7
16 9 23 -3 45 -21 39 -8 -3 -12 -10 -9 -15 3 -5 -2 -6 -10 -3 -9 3 -16 2 -16
-2 0 -5 -14 -10 -30 -11 -21 -2 -30 2 -30 13 0 8 -4 12 -10 9 -5 -3 -10 -1
-10 4 0 16 -42 13 -68 -5z m62 -84 c0 -47 -3 -55 -20 -58 -14 -2 -20 3 -20 18
0 11 7 20 16 21 10 0 9 3 -5 9 -11 5 -15 9 -9 9 7 1 10 14 8 32 -3 24 0 30 13
27 13 -2 16 -15 17 -58z"/>
<path d="M6520 10327 c26 -13 33 -39 17 -71 -6 -12 -5 -16 1 -12 6 3 9 -7 8
-26 -1 -23 4 -32 17 -34 14 -2 18 2 14 17 -3 10 -1 17 3 14 5 -3 8 14 7 37 -2
36 -7 46 -35 65 -18 13 -38 23 -45 23 -7 0 -1 -6 13 -13z"/>
<path d="M5005 10259 c-27 -14 -53 -24 -57 -22 -5 2 -8 -1 -8 -7 0 -6 -4 -8
-10 -5 -5 3 -10 1 -10 -6 0 -7 -3 -9 -7 -6 -3 4 -12 -1 -20 -11 -9 -10 -12
-11 -7 -2 6 11 2 10 -13 -2 -11 -10 -23 -18 -27 -18 -4 0 -14 -7 -23 -15 -8
-8 -18 -13 -23 -10 -4 3 -10 -1 -13 -9 -3 -8 -16 -16 -29 -18 -13 -2 -22 -9
-20 -16 1 -6 -1 -12 -5 -13 -34 -3 -71 -11 -83 -16 -8 -3 -17 -7 -20 -8 -25
-6 -79 -39 -74 -46 3 -5 -1 -6 -9 -3 -8 3 -23 -6 -35 -20 -11 -14 -25 -26 -32
-26 -6 0 -9 -3 -7 -7 5 -10 -30 -43 -37 -35 -3 3 -6 0 -6 -6 0 -8 -7 -9 -25
-2 -14 5 -32 7 -40 4 -8 -4 -15 -1 -15 5 0 6 -3 10 -7 10 -23 -4 -43 2 -38 11
3 6 1 10 -5 10 -7 0 -5 7 4 16 9 8 14 20 11 25 -4 5 -1 9 6 9 7 0 10 3 6 6 -3
4 1 13 9 21 8 8 12 19 9 24 -4 5 -1 9 5 9 6 0 9 4 6 9 -3 5 4 21 16 37 13 15
17 25 10 21 -8 -6 -10 -3 -6 7 3 9 10 13 15 10 5 -3 9 4 9 15 0 26 10 52 19
47 4 -3 7 4 7 14 0 14 -6 17 -30 13 -17 -3 -43 -13 -57 -24 -15 -10 -32 -19
-38 -19 -6 0 -11 -4 -11 -10 0 -5 -5 -10 -12 -10 -12 0 -16 -3 -98 -85 -88
-87 -120 -125 -107 -125 7 -1 2 -6 -11 -13 -12 -7 -20 -15 -17 -18 3 -3 -6
-18 -20 -33 -13 -14 -25 -29 -26 -31 -9 -36 -13 -44 -20 -39 -5 3 -9 -4 -9
-15 0 -12 -5 -21 -11 -21 -5 0 -7 -4 -4 -10 3 -5 2 -10 -3 -10 -5 0 -17 -21
-25 -47 -12 -36 -13 -49 -4 -55 9 -6 8 -8 -2 -8 -8 0 -11 -3 -8 -6 3 -4 2 -15
-4 -25 -7 -14 -6 -19 3 -19 10 0 10 -2 -1 -9 -11 -7 -11 -9 0 -14 12 -5 12 -7
0 -15 -7 -5 -9 -12 -4 -15 5 -3 8 -23 7 -44 0 -21 4 -41 10 -45 7 -5 7 -8 -2
-8 -8 0 -10 -5 -6 -12 10 -16 13 -88 4 -88 -4 0 -6 -13 -5 -30 1 -16 -2 -30
-7 -30 -4 0 -7 -3 -6 -7 3 -14 -20 -59 -36 -72 -9 -7 -16 -24 -16 -38 0 -13
-4 -22 -9 -19 -4 3 -7 -5 -6 -19 2 -13 -3 -26 -11 -29 -8 -3 -14 -11 -14 -17
0 -6 -11 -22 -25 -35 -14 -13 -25 -27 -25 -33 0 -5 -9 -12 -19 -16 -11 -3 -23
-14 -26 -25 -3 -10 -12 -21 -20 -24 -8 -3 -15 -12 -15 -21 0 -8 -3 -15 -8 -15
-4 0 -7 -17 -6 -37 1 -20 -2 -47 -7 -60 -5 -13 -5 -23 0 -23 4 0 8 -7 8 -15 0
-8 -5 -11 -10 -8 -7 4 -8 -1 -3 -12 4 -11 2 -22 -6 -27 -10 -6 -10 -8 1 -8 11
0 11 -3 1 -15 -7 -8 -9 -15 -4 -15 5 0 9 -13 9 -30 1 -16 -3 -30 -8 -30 -4 0
-6 -4 -3 -9 7 -11 -23 -22 -224 -87 -80 -26 -149 -49 -155 -53 -5 -3 -14 -6
-20 -7 -5 -1 -55 -17 -110 -35 -55 -18 -102 -34 -105 -34 -3 -1 -12 -4 -20 -8
-15 -5 -154 -51 -295 -97 -82 -26 -105 -36 -243 -102 -185 -88 -329 -192 -458
-332 -139 -149 -281 -392 -300 -513 -3 -20 -7 -43 -9 -52 -2 -9 -11 -49 -19
-89 -9 -40 -18 -88 -20 -107 -3 -19 -7 -38 -9 -42 -3 -5 -8 -28 -12 -53 -4
-25 -8 -47 -10 -50 -2 -3 -6 -25 -10 -50 -4 -25 -8 -47 -10 -50 -2 -3 -6 -22
-9 -43 -3 -21 -15 -79 -27 -130 -11 -51 -22 -108 -25 -127 -2 -19 -7 -43 -10
-52 -5 -16 -9 -34 -19 -88 -7 -38 -14 -70 -25 -125 -14 -70 -19 -96 -26 -130
-2 -16 -9 -46 -14 -65 -5 -19 -11 -51 -14 -70 -9 -57 -16 -93 -26 -130 -5 -19
-11 -51 -14 -70 -3 -19 -14 -75 -25 -125 -11 -49 -22 -103 -25 -120 -3 -16
-10 -52 -16 -80 -6 -27 -13 -63 -16 -80 -3 -16 -9 -46 -14 -65 -5 -19 -11 -51
-14 -70 -8 -49 -15 -88 -27 -140 -6 -25 -13 -56 -15 -70 -2 -14 -9 -45 -14
-70 -5 -25 -12 -56 -14 -70 -5 -25 -20 -102 -31 -150 -5 -24 -11 -56 -21 -114
-3 -16 -7 -32 -9 -36 -2 -4 -6 -20 -9 -36 -3 -16 -7 -42 -10 -59 -3 -16 -14
-73 -25 -125 -11 -52 -22 -106 -25 -120 -3 -14 -7 -34 -9 -45 -2 -11 -8 -38
-12 -60 -11 -60 -14 -75 -29 -138 -12 -49 -14 -202 -6 -372 2 -37 40 -210 61
-275 32 -99 113 -260 176 -352 56 -83 129 -160 258 -273 38 -33 76 -67 85 -75
9 -8 49 -44 90 -80 67 -58 133 -117 164 -145 6 -6 52 -46 101 -90 50 -43 92
-81 95 -84 3 -4 23 -21 45 -40 32 -28 102 -89 209 -186 6 -5 50 -44 96 -85 47
-41 87 -77 90 -80 3 -3 43 -39 90 -80 47 -41 101 -88 120 -106 19 -17 82 -73
140 -124 58 -51 121 -107 140 -124 19 -17 73 -65 120 -106 47 -41 87 -77 90
-80 3 -3 43 -39 90 -80 47 -41 87 -77 90 -80 9 -9 174 -155 187 -165 18 -15
99 -94 168 -165 179 -184 446 -328 729 -391 237 -53 505 -44 698 22 51 17 98
35 103 39 8 6 276 95 320 106 6 2 80 26 165 54 85 28 162 53 170 55 8 2 83 27
165 55 83 27 158 52 169 55 10 2 88 27 173 55 85 29 162 53 172 55 9 2 40 13
69 24 29 11 55 19 58 19 3 0 17 5 32 10 22 9 344 113 362 117 3 1 12 4 20 8
47 18 328 108 345 110 11 2 25 5 30 8 10 7 197 69 218 73 7 2 19 6 27 9 8 4
86 29 172 57 87 27 173 56 193 64 19 8 35 13 35 11 0 -6 141 55 216 93 134 67
289 184 398 300 109 116 230 321 289 492 32 91 75 271 79 328 2 23 5 42 8 42
3 0 5 12 4 27 -1 16 2 37 7 49 4 11 10 37 13 57 5 34 55 272 96 462 11 50 35
169 55 265 20 96 44 216 55 265 11 50 22 102 25 118 12 62 16 83 21 99 3 10 7
30 10 45 2 16 11 60 20 98 8 39 17 81 19 95 2 14 16 79 30 145 14 66 33 152
40 190 16 79 19 90 35 160 6 28 13 59 14 70 2 11 8 45 15 75 6 30 13 64 15 75
2 11 11 52 20 90 9 39 18 81 20 95 15 80 58 285 61 290 2 4 7 29 10 56 4 27
10 78 15 114 19 140 -1 481 -34 587 -4 12 -9 31 -11 43 -9 45 -70 199 -110
276 -86 163 -184 285 -345 424 -35 30 -73 64 -84 75 -12 11 -75 67 -141 125
-66 57 -125 109 -131 115 -41 38 -165 147 -194 171 -19 16 -46 40 -60 54 -24
23 -93 84 -136 121 -11 8 -49 42 -85 75 -36 32 -96 86 -134 119 -38 33 -79 69
-91 80 -19 18 -124 111 -174 155 -31 27 -142 125 -164 143 -12 10 -54 49 -95
85 -41 37 -85 76 -97 87 -13 11 -49 43 -81 72 -32 28 -67 60 -79 70 -52 45
-148 130 -168 148 -12 11 -38 34 -57 50 -35 31 -48 73 -26 87 9 6 9 8 0 8 -6
0 -15 -4 -18 -10 -3 -5 -11 -10 -16 -10 -6 0 -7 5 -4 10 3 6 1 10 -5 10 -8 0
-7 6 1 21 8 15 8 19 0 15 -14 -9 -14 9 0 36 8 15 8 19 0 14 -14 -9 -14 0 -1
24 15 27 -11 45 -36 24 -10 -8 -13 -12 -5 -8 10 5 12 3 5 -7 -5 -8 -9 -32 -10
-54 -1 -57 -17 -40 -19 19 -1 28 -7 52 -13 54 -7 2 -9 9 -5 15 4 7 -1 6 -10
-2 -9 -7 -17 -9 -17 -3 0 5 -11 9 -24 8 -13 0 -22 -4 -20 -7 2 -4 -2 -9 -10
-12 -7 -3 -33 12 -56 32 -33 29 -42 43 -38 59 4 13 1 22 -5 22 -8 0 -7 4 2 9
9 6 10 10 2 16 -9 5 -9 11 1 23 11 14 10 15 -6 9 -14 -6 -16 -4 -9 5 13 18 10
44 -6 40 -7 -1 -10 2 -6 7 11 19 -30 31 -52 16 -11 -8 -23 -11 -27 -8 -5 6
-10 -20 -7 -39 0 -5 -3 -8 -9 -8 -5 0 -6 -8 -3 -17 7 -17 5 -17 -17 -2 -21 14
-29 30 -32 67 -2 16 -13 15 -30 -1 -17 -17 -25 -15 -83 15 -28 15 -42 27 -32
28 10 0 15 5 12 10 -3 6 -1 10 5 10 6 0 8 5 5 10 -3 6 -1 10 6 10 10 0 10 3 2
11 -13 13 -6 39 9 39 6 0 8 -9 5 -20 -3 -11 0 -20 6 -20 7 0 5 -5 -3 -10 -13
-8 -12 -10 3 -10 9 0 17 -6 17 -14 0 -8 7 -16 15 -20 8 -3 15 0 15 7 0 9 2 9
8 0 6 -9 15 -7 37 7 17 11 24 20 15 20 -12 0 -13 2 -1 9 7 5 10 14 7 20 -4 6
-1 11 7 11 8 0 14 -8 14 -17 0 -35 3 -44 13 -38 6 3 10 0 10 -7 0 -19 65 -11
82 9 15 19 17 45 3 55 -6 5 -5 8 3 8 8 0 11 11 7 38 -9 67 -12 77 -24 74 -6
-1 -11 2 -11 6 0 4 -9 8 -20 9 -11 1 -18 -2 -15 -6 2 -5 -7 -7 -20 -5 -14 1
-23 -2 -19 -7 3 -5 1 -9 -4 -9 -5 0 -8 -20 -7 -45 2 -36 -1 -45 -14 -44 -10 0
-12 2 -4 6 9 3 10 10 3 24 -8 14 -7 19 1 19 8 0 6 7 -4 18 -10 10 -17 27 -17
38 0 16 -2 17 -10 4 -5 -8 -10 -10 -10 -4 0 17 -37 11 -61 -9 -14 -12 -20 -26
-17 -42 7 -34 -7 -54 -24 -37 -7 8 -8 13 -3 12 22 -5 29 1 15 10 -12 8 -13 13
-3 29 11 18 10 19 -5 14 -9 -3 -14 -3 -10 1 4 5 1 14 -5 21 -9 10 -15 10 -26
1 -11 -8 -13 -8 -8 1 5 8 0 11 -13 10 -11 -1 -20 -5 -20 -10 0 -4 -4 -6 -9 -3
-10 6 -25 -36 -25 -71 0 -12 -4 -20 -8 -17 -4 3 -8 1 -8 -5 0 -5 4 -12 9 -15
5 -4 8 -14 7 -24 -2 -9 2 -20 8 -24 7 -5 5 -8 -5 -8 -20 0 -33 26 -18 36 7 4
6 10 -1 19 -8 10 -8 19 -1 34 8 13 8 22 1 26 -6 4 -8 10 -6 14 3 4 -2 17 -10
29 -15 22 -36 24 -63 8 -10 -7 -12 -5 -7 5 4 8 1 6 -7 -3 -8 -10 -18 -14 -22
-10 -5 4 -5 -1 -2 -10 3 -9 1 -19 -6 -22 -9 -3 -8 -5 1 -5 7 -1 10 -6 6 -12
-4 -7 -7 -24 -6 -39 0 -23 -3 -26 -23 -22 -19 3 -23 9 -20 33 2 16 1 28 -3 25
-4 -2 -6 14 -3 36 l3 41 -28 -20 c-16 -11 -37 -19 -46 -18 -11 2 -15 -2 -11
-11 4 -10 0 -12 -11 -8 -9 3 -13 10 -10 16 3 5 -4 12 -16 15 -17 4 -19 8 -8
15 16 11 -31 6 -49 -5 -6 -4 -14 -1 -16 5 -3 8 -6 6 -6 -4 -1 -10 -6 -18 -12
-18 -6 0 -9 -7 -5 -15 3 -8 0 -15 -7 -15 -8 0 -6 -4 3 -10 12 -8 9 -10 -12
-10 -17 0 -31 7 -38 20 -7 14 -7 20 0 20 16 0 12 17 -6 24 -9 4 -23 1 -30 -5
-8 -6 -20 -9 -27 -6 -11 4 -13 -3 -11 -26 3 -20 1 -27 -5 -19 -4 8 -12 13 -17
12 -5 -1 -10 4 -13 11 -2 7 2 9 10 5 8 -4 7 -2 -2 6 -9 7 -16 17 -17 21 0 5
-4 12 -8 15 -4 4 -4 1 0 -5 4 -8 1 -13 -9 -13 -9 0 -13 4 -10 10 3 6 -1 7 -9
4 -10 -4 -16 -1 -16 7 0 8 -14 -1 -30 -20 -17 -19 -26 -37 -21 -41 17 -10 -22
-28 -44 -19 -11 4 -14 8 -7 8 10 1 10 6 1 22 -8 16 -8 20 1 14 9 -6 9 -2 0 14
-9 18 -14 20 -26 11 -7 -7 -12 -16 -9 -20 2 -4 -7 -6 -21 -4 -21 2 -25 -1 -22
-19 2 -15 9 -21 21 -19 28 5 19 -15 -12 -26 -26 -9 -28 -8 -29 17 0 14 -7 37
-14 51 -14 26 -48 40 -48 19 0 -7 -6 -5 -13 6 -11 14 -16 15 -22 5 -6 -9 -4
-11 6 -6 8 4 3 -1 -10 -12 -17 -13 -22 -26 -18 -41 3 -11 2 -23 -3 -26 -4 -2
-5 -16 -2 -31 3 -16 -1 -29 -9 -35 -19 -12 -42 -11 -34 1 3 6 1 10 -6 10 -8 0
-8 4 -1 13 13 15 13 27 1 49 -6 11 -5 19 2 24 8 4 7 9 -2 15 -10 6 -10 9 -2 9
7 0 10 6 7 14 -4 11 -10 11 -30 2 -13 -6 -24 -15 -24 -19 0 -5 -4 -6 -8 -3 -4
2 -14 -4 -21 -16 -7 -11 -8 -17 -2 -13 6 3 11 2 11 -3 0 -6 8 -9 18 -8 19 1
24 -39 8 -61 -5 -8 -4 -13 3 -13 21 0 -12 -39 -39 -45 -66 -14 -72 -14 -62 -2
5 7 8 21 6 32 -1 11 2 23 9 27 8 5 5 8 -8 8 -15 0 -17 2 -6 9 9 6 12 19 8 39
-4 20 -2 32 6 36 9 3 9 5 0 5 -7 1 -10 8 -6 18 4 10 2 14 -4 10 -6 -4 -14 -1
-16 5 -3 8 -6 6 -6 -4 -1 -10 -4 -17 -8 -17 -31 5 -49 -3 -49 -21 0 -11 5 -19
11 -17 20 8 30 -18 29 -75 0 -32 4 -58 9 -58 11 0 3 -25 -9 -26 -5 0 -22 -4
-39 -9 -16 -5 -47 -8 -68 -8 -20 0 -40 -4 -44 -10 -3 -6 -1 -7 5 -3 7 4 12 5
12 2 0 -7 -56 -36 -70 -36 -5 0 -10 11 -10 24 0 19 -5 24 -20 23 -12 -1 -18
-7 -16 -14 3 -7 -1 -14 -9 -14 -29 -3 -33 -4 -42 -13 -4 -5 -3 -6 3 -3 7 4 15
0 18 -9 8 -20 7 -21 -19 -26 -19 -3 -19 6 -20 574 0 317 -2 578 -5 580 -3 2
-27 -8 -55 -23z m1628 -879 c3 -11 2 -20 -2 -20 -11 0 -8 -44 4 -52 6 -5 5 -8
-3 -8 -7 0 -11 -4 -7 -9 3 -5 1 -12 -5 -16 -5 -3 -11 -3 -11 2 -11 65 -10 60
-7 113 1 22 5 27 14 19 6 -5 14 -19 17 -29z m122 19 c-4 -5 -2 -9 3 -9 4 0 8
-24 8 -54 -1 -30 -4 -52 -8 -49 -5 2 -8 -1 -8 -8 0 -19 -10 -5 -20 30 -6 21
-5 29 1 25 7 -4 9 7 5 30 -4 22 -2 36 5 36 5 0 7 5 3 12 -4 7 -3 8 5 4 6 -4 9
-12 6 -17z m138 -16 c-3 -7 1 -13 8 -13 11 0 11 -3 -1 -10 -11 -7 -11 -10 -2
-10 7 0 10 -5 7 -11 -4 -5 -8 -21 -10 -35 -1 -14 -8 -31 -15 -37 -7 -7 -10 -7
-7 -2 3 6 2 17 -3 25 -5 9 -5 19 2 27 7 9 7 13 -1 13 -6 0 -11 5 -11 11 0 5 6
7 13 3 9 -6 9 -4 -1 8 -9 11 -10 18 -2 23 5 3 10 11 10 16 0 6 -6 7 -12 3 -9
-5 -8 -2 1 10 11 12 16 14 22 5 4 -7 5 -18 2 -26z m-1206 -15 c0 -30 -4 -38
-19 -38 -11 0 -18 7 -18 20 0 11 6 20 13 20 7 0 8 3 2 8 -18 13 -15 31 4 29
14 -1 18 -9 18 -39z m267 27 c3 -8 4 -15 2 -15 -3 0 -11 -3 -19 -6 -12 -4 -14
0 -10 15 6 25 18 27 27 6z m264 3 c-2 -7 4 -12 12 -10 12 3 12 0 -2 -14 -20
-20 -38 -11 -31 16 6 21 25 28 21 8z m283 -5 c8 -8 7 -13 -2 -18 -8 -6 -10 -4
-4 5 5 9 4 11 -4 6 -6 -4 -8 -12 -5 -18 10 -16 12 -78 3 -78 -15 0 -24 26 -25
71 -1 47 11 58 37 32z m-168 -39 c-3 -8 -15 -12 -29 -10 -39 7 -47 17 -28 31
22 16 65 0 57 -21z m576 -212 c-5 -14 -5 -21 0 -17 8 4 8 -18 2 -54 -1 -2 -7
2 -15 9 -8 6 -12 19 -9 27 5 12 3 14 -8 8 -11 -7 -12 -6 -3 6 6 8 10 22 9 31
-2 11 3 16 15 15 15 -1 16 -5 9 -25z m207 -224 l1 -32 -19 24 c-19 23 -19 24
-1 31 10 4 18 8 18 8 0 1 1 -13 1 -31z"/>
<path d="M5401 10152 c-1 -7 -5 -10 -11 -7 -6 4 -7 -1 -3 -11 4 -11 3 -15 -5
-10 -6 3 -13 2 -17 -4 -4 -6 -11 -8 -16 -5 -5 4 -9 2 -9 -4 0 -14 35 -32 46
-23 5 4 2 -1 -5 -10 -7 -10 -9 -18 -4 -18 13 0 11 -93 -2 -103 -6 -4 -1 -7 10
-5 11 1 25 -1 31 -4 13 -9 13 90 0 111 -6 10 -6 12 2 7 8 -5 12 0 12 13 0 10
-6 22 -12 24 -10 4 -10 6 0 6 6 1 12 10 12 22 0 11 -4 18 -9 15 -5 -4 -12 0
-14 6 -4 10 -6 10 -6 0z"/>
<path d="M5530 10140 c-8 -11 -17 -17 -22 -14 -10 7 -39 -21 -31 -30 4 -3 15
-6 25 -6 11 0 16 -4 13 -10 -3 -5 -1 -10 6 -10 9 0 9 -3 0 -14 -9 -11 -9 -15
1 -19 10 -4 10 -6 -1 -6 -11 -1 -11 -4 -1 -16 10 -12 10 -15 -1 -15 -11 0 -11
-2 1 -10 10 -7 11 -10 2 -10 -9 0 -10 -4 -1 -19 11 -17 13 -17 29 -2 13 12 14
20 6 30 -8 11 -8 13 0 8 8 -4 11 2 10 18 0 14 -5 25 -11 25 -7 0 -7 3 0 8 6 4
10 14 10 22 0 8 -4 18 -10 22 -7 5 -6 8 0 8 14 0 14 34 -1 47 -8 8 -15 6 -24
-7z"/>
<path d="M5661 10152 c-13 -2 -30 -9 -36 -16 -17 -16 -19 -135 -3 -154 10 -12
10 -14 1 -8 -9 5 -11 2 -7 -9 4 -9 13 -14 20 -11 8 3 14 1 14 -5 0 -6 5 -7 11
-3 7 4 21 7 33 8 11 1 21 8 21 16 1 8 7 14 13 12 10 -2 10 3 3 17 -6 10 -7 21
-4 25 10 10 9 66 -1 66 -5 0 -7 2 -4 5 3 3 19 2 37 -1 31 -7 31 -7 30 -68 -2
-81 0 -93 9 -81 4 6 14 10 22 10 11 0 15 10 13 40 -1 22 4 43 10 47 9 6 8 8
-1 8 -9 0 -13 12 -12 38 1 20 2 42 1 49 -1 15 -39 8 -61 -12 -30 -27 -57 -17
-51 19 1 5 -5 6 -13 3 -8 -3 -16 -3 -18 1 -2 4 -14 5 -27 4z m30 -56 c1 -6 0
-15 -1 -21 -2 -5 -4 -26 -5 -45 -5 -60 -6 -66 -12 -52 -2 6 -8 10 -11 8 -4 -2
-8 12 -10 31 -1 25 1 32 10 27 10 -6 10 -4 3 7 -6 8 -10 21 -9 29 1 8 2 20 3
27 1 15 31 5 32 -11z"/>
<path d="M5926 10152 c-28 -6 -60 -38 -47 -47 6 -3 9 -10 6 -15 -9 -15 -13
-70 -4 -64 13 8 11 -10 -3 -24 -9 -9 -9 -12 3 -12 12 0 12 -2 -1 -10 -13 -9
-13 -10 0 -11 8 -1 18 -1 23 0 4 0 7 -6 7 -16 0 -9 3 -13 7 -10 3 4 13 1 21
-6 13 -9 14 -9 8 1 -6 11 4 17 26 13 4 0 12 8 18 19 6 11 8 20 4 20 -3 0 -2 6
2 13 14 18 10 52 -5 49 -8 -2 -10 2 -4 10 14 22 10 62 -9 81 -12 11 -18 13
-18 5 0 -9 -3 -9 -8 -3 -4 6 -16 9 -26 7z m19 -31 c-3 -5 -1 -12 4 -15 5 -4 8
-19 6 -34 -1 -15 2 -33 9 -41 8 -12 8 -13 -2 -7 -9 5 -13 3 -11 -5 1 -8 1 -22
0 -32 -1 -14 -4 -15 -14 -6 -19 18 -12 149 8 149 4 0 4 -4 0 -9z"/>
<path d="M6069 10143 c-7 -12 -19 -19 -26 -16 -7 3 -13 0 -13 -7 0 -6 -3 -9
-7 -7 -5 3 -9 -7 -9 -21 -1 -15 1 -21 3 -14 3 6 11 12 18 12 17 0 37 -34 27
-45 -10 -10 -9 -29 3 -37 7 -5 6 -8 -1 -8 -6 0 -10 -10 -9 -22 1 -16 8 -23 24
-24 12 -1 24 3 27 7 3 5 0 9 -7 9 -8 0 -8 4 1 15 9 11 9 15 1 15 -7 0 -9 5 -4
13 11 18 12 37 2 37 -5 0 -9 5 -9 11 0 5 5 7 11 3 7 -4 7 1 -1 16 -9 17 -9 21
0 15 9 -5 10 -1 5 16 -15 48 -22 54 -36 32z"/>
<path d="M6176 10145 c-3 -9 -11 -13 -17 -9 -8 4 -10 -7 -8 -40 2 -25 1 -46
-2 -46 -4 0 -4 -15 -2 -32 3 -18 5 -38 6 -45 0 -7 4 -10 9 -7 4 3 8 1 8 -5 0
-16 43 -18 72 -4 24 12 27 18 25 63 -1 28 2 50 8 50 6 0 3 5 -5 10 -11 7 -6
10 21 10 28 0 38 -5 42 -20 3 -11 0 -20 -5 -20 -6 0 -5 -6 2 -15 10 -12 10
-15 -1 -15 -11 0 -11 -2 1 -10 8 -5 10 -10 4 -10 -7 0 -9 -11 -6 -25 3 -16 11
-25 24 -25 10 0 16 5 13 10 -3 6 -1 10 6 10 8 0 7 5 -2 17 -10 11 -10 14 -1 9
15 -9 15 -5 2 28 -6 17 -6 26 1 26 6 0 6 7 -1 20 -8 15 -8 20 2 20 10 0 10 2
-1 9 -9 6 -10 10 -2 12 16 6 4 36 -14 36 -8 0 -15 -5 -15 -10 0 -6 -3 -8 -6
-4 -4 3 -13 -1 -21 -9 -8 -8 -19 -11 -25 -8 -7 5 -8 2 -3 -6 5 -8 3 -11 -6 -8
-8 3 -13 13 -11 23 2 9 -1 14 -7 11 -5 -4 -14 2 -20 11 -8 14 -10 15 -11 3 0
-13 -1 -13 -10 0 -8 12 -10 12 -10 1 0 -10 -3 -11 -14 -2 -11 9 -15 8 -20 -4z
m50 -95 c-1 -47 -4 -60 -17 -60 -12 0 -15 12 -15 60 1 48 4 60 17 60 13 0 16
-11 15 -60z"/>
<path d="M6437 10137 c-12 -12 -18 -36 -20 -82 -1 -36 1 -65 5 -65 5 0 8 -8 8
-18 0 -10 6 -19 13 -19 6 0 20 -4 30 -8 11 -5 17 -3 17 6 0 11 3 11 10 -1 8
-13 10 -12 10 3 0 10 5 15 10 12 6 -3 11 -1 11 4 3 26 4 30 12 37 12 12 8 26
-5 18 -10 -6 -10 -4 0 8 9 12 10 17 1 20 -8 3 -7 7 3 15 12 10 14 6 13 -27 -1
-22 4 -40 9 -40 7 0 8 -3 1 -8 -17 -12 -16 -32 2 -25 11 4 14 3 9 -5 -5 -8 1
-12 16 -13 35 -2 53 2 56 12 2 5 8 7 13 3 12 -7 15 56 6 119 -2 15 0 27 7 27
6 0 1 9 -10 21 -25 25 -71 32 -78 12 -3 -8 -10 -12 -15 -9 -10 7 -24 -22 -16
-34 3 -4 -1 -10 -8 -13 -9 -3 -13 2 -12 16 2 28 -14 43 -50 48 -20 3 -36 -2
-48 -14z m57 -39 c1 -7 6 -19 10 -27 6 -10 5 -12 -2 -7 -8 5 -11 -5 -9 -31 1
-28 -2 -38 -14 -41 -12 -2 -16 4 -15 20 1 13 -2 31 -6 41 -5 10 -5 17 1 17 5
0 8 8 7 18 -2 9 2 20 8 24 12 8 17 5 20 -14z m136 -9 c-6 -10 -5 -20 2 -27 7
-7 8 -12 2 -12 -6 0 -10 -12 -10 -27 1 -16 -3 -28 -9 -28 -5 0 -9 6 -9 13 1 6
-2 12 -7 12 -5 0 -4 11 1 25 5 14 6 25 1 25 -5 0 -7 9 -4 19 3 11 13 19 23 18
14 -1 16 -5 10 -18z"/>
<path d="M5120 10139 c0 -5 -6 -9 -13 -9 -7 0 -18 -10 -26 -22 -7 -13 -10 -20
-6 -16 4 4 15 3 24 -1 13 -7 16 -24 15 -75 0 -55 2 -66 15 -64 23 4 40 39 29
61 -6 12 -5 17 4 17 8 0 9 3 3 8 -14 9 -13 55 0 64 6 5 5 8 -4 8 -11 0 -11 3
-1 15 14 17 14 17 -17 20 -13 1 -23 -2 -23 -6z"/>
<path d="M5250 10135 c-7 -9 -19 -14 -27 -11 -8 3 -11 1 -8 -4 3 -6 2 -10 -4
-10 -6 0 -8 -7 -4 -16 5 -12 7 -13 14 -3 6 10 12 4 23 -21 8 -19 10 -36 5 -38
-5 -2 -5 -12 1 -23 8 -14 7 -19 -1 -19 -9 0 -9 -3 0 -14 7 -8 8 -16 4 -18 -4
-3 -3 -4 3 -2 6 1 16 -2 21 -7 11 -11 10 -14 14 81 2 36 -1 72 -6 80 -5 8 -4
11 2 7 6 -4 14 0 17 9 3 8 2 12 -4 9 -6 -3 -10 -1 -10 4 0 16 -26 13 -40 -4z"/>
<path d="M6704 10136 c-10 -8 -16 -18 -12 -21 4 -4 0 -14 -8 -23 -11 -10 -12
-17 -4 -22 6 -3 10 -20 10 -36 -1 -16 0 -37 2 -47 5 -19 28 -46 28 -32 0 5 7
0 16 -11 8 -10 13 -13 9 -6 -3 6 0 13 7 13 7 1 18 2 23 4 6 1 17 3 25 4 13 1
13 2 0 11 -8 5 -10 10 -4 10 6 0 11 7 11 15 0 8 -5 15 -10 15 -5 0 -7 9 -4 20
7 26 -19 48 -36 30 -9 -10 -9 -11 1 -6 7 4 12 2 12 -6 0 -8 -6 -20 -12 -27 -7
-8 -8 -11 -2 -8 6 3 11 0 11 -8 0 -8 -5 -11 -10 -8 -7 4 -8 -1 -3 -13 6 -16 5
-17 -6 -6 -15 15 -19 124 -5 133 11 8 2 39 -11 39 -4 0 -17 -6 -28 -14z"/>
<path d="M5154 9922 c6 -10 -30 -28 -47 -24 -5 1 -6 -2 -2 -8 3 -5 -1 -13 -10
-16 -12 -5 -13 -9 -4 -21 8 -8 15 -10 18 -4 4 6 12 6 21 1 13 -9 13 -10 0 -10
-13 0 -13 -1 0 -10 11 -7 11 -10 2 -10 -10 0 -10 -5 -1 -21 6 -12 7 -19 1 -15
-6 4 -7 -6 -2 -29 4 -19 5 -37 1 -40 -3 -4 3 -5 14 -3 23 4 35 42 23 76 -4 13
-4 22 3 22 6 0 7 5 3 12 -4 7 -7 31 -5 54 1 25 -3 45 -10 50 -7 4 -10 3 -5 -4z"/>
<path d="M5252 9926 c4 -5 0 -14 -9 -21 -23 -17 -26 -33 -22 -118 1 -37 7 -52
26 -67 20 -16 29 -17 47 -8 31 16 60 49 50 57 -11 7 -12 26 -2 36 4 4 3 18 -2
31 -6 14 -6 26 0 29 6 4 10 11 10 17 0 6 -3 9 -6 6 -3 -4 -14 2 -25 13 -11 11
-24 17 -30 14 -5 -4 -18 -1 -27 6 -9 7 -14 9 -10 5z m38 -94 c-6 -2 -7 -9 -3
-15 12 -20 10 -66 -4 -71 -7 -3 -13 -1 -13 5 0 6 -5 7 -12 3 -7 -4 -8 -3 -4 5
4 6 13 8 19 4 9 -5 9 -3 1 8 -13 16 -12 88 1 109 7 11 11 7 17 -15 5 -18 4
-31 -2 -33z"/>
<path d="M5701 9923 c0 -6 -14 -10 -30 -9 -17 1 -28 -2 -25 -6 3 -4 0 -8 -6
-8 -6 0 -8 -4 -5 -10 3 -5 3 -10 -2 -10 -4 0 -8 -31 -8 -69 0 -41 3 -67 9 -64
5 4 7 -1 3 -9 -8 -22 3 -30 21 -15 11 8 14 8 9 0 -4 -6 -3 -14 3 -18 5 -3 10
-1 10 5 0 6 4 8 10 5 13 -8 52 14 45 25 -3 5 -1 11 3 14 5 3 7 34 6 68 -5 86
-6 90 -20 84 -7 -3 -15 3 -17 12 -3 9 -5 12 -6 5z m-6 -53 c-4 -12 -2 -20 5
-20 6 0 8 -5 4 -12 -12 -19 -12 -48 0 -48 6 0 4 -5 -4 -10 -11 -7 -11 -10 -2
-10 7 0 10 -4 7 -10 -3 -5 -16 -10 -28 -10 -18 0 -19 2 -7 10 9 6 10 10 3 10
-8 0 -9 9 -3 30 5 19 5 28 -1 25 -15 -10 -5 39 11 52 21 17 22 16 15 -7z"/>
<path d="M6090 9915 c0 -9 -13 -21 -29 -26 -16 -6 -32 -17 -35 -24 -3 -8 0
-12 7 -10 27 10 39 -13 39 -73 1 -34 5 -59 9 -56 5 3 9 0 9 -5 0 -18 14 -12
28 10 8 12 9 18 4 15 -11 -7 -10 43 1 61 6 9 3 11 -9 6 -15 -5 -14 -3 2 23 11
15 13 25 7 21 -7 -5 -13 -4 -13 2 0 6 6 11 13 11 9 0 8 3 -2 9 -7 5 -11 13 -8
17 3 5 -1 15 -9 22 -12 11 -14 10 -14 -3z"/>
<path d="M6334 9915 c-4 -8 -12 -15 -18 -15 -7 0 -13 -6 -14 -12 0 -7 -4 -24
-7 -38 -5 -20 -4 -22 4 -10 9 12 11 10 7 -10 -2 -14 -7 -33 -11 -42 -5 -12 -2
-18 6 -18 11 0 11 -3 -1 -10 -10 -6 -11 -10 -2 -10 6 0 12 -7 12 -15 0 -24 50
-31 83 -11 25 14 33 15 51 3 29 -18 75 -20 91 -3 8 7 11 16 8 20 -4 3 0 6 8 6
11 0 11 2 -1 10 -8 5 -10 10 -5 10 12 0 13 79 1 99 -7 10 -5 12 5 7 8 -4 6 -1
-3 7 -10 8 -18 18 -18 23 0 5 -13 9 -30 9 -16 1 -30 -3 -30 -8 0 -4 -4 -6 -9
-3 -5 3 -15 -2 -22 -11 -12 -14 -12 -16 1 -8 13 7 13 6 2 -7 -7 -8 -10 -23 -6
-32 4 -10 1 -16 -9 -16 -10 0 -13 9 -11 30 2 17 -1 30 -7 30 -6 0 -8 4 -5 9 9
13 -41 20 -54 7 -8 -8 -9 -6 -5 7 4 9 4 17 1 17 -4 0 -9 -7 -12 -15z m41 -64
c0 -16 -4 -27 -9 -24 -5 4 -6 0 -1 -7 5 -7 9 -25 10 -40 2 -19 -3 -26 -17 -27
-10 -1 -16 2 -13 8 4 5 1 9 -6 9 -7 0 -4 7 7 16 10 8 14 13 8 10 -7 -3 -15 1
-18 10 -3 9 -2 12 5 9 6 -4 10 -1 8 6 -4 33 2 59 14 59 8 0 13 -12 12 -29z
m130 -17 c0 -21 5 -42 10 -46 6 -5 5 -8 -2 -8 -7 0 -10 -6 -7 -14 8 -21 -13
-29 -21 -8 -11 25 -12 45 -1 60 5 8 4 12 -4 12 -9 0 -9 4 1 17 9 11 10 14 2 9
-9 -5 -11 -2 -7 9 11 28 29 9 29 -31z m-71 -36 c-4 -6 0 -14 7 -19 11 -7 9 -9
-7 -9 -17 0 -20 5 -16 25 2 14 8 22 13 19 5 -3 6 -10 3 -16z m6 -48 c8 -5 11
-10 5 -10 -5 0 -17 5 -25 10 -8 5 -10 10 -5 10 6 0 17 -5 25 -10z"/>
<path d="M6623 9910 c-5 -18 -21 -25 -45 -21 -5 0 -6 -9 -4 -22 3 -12 5 -24 5
-27 1 -3 5 2 11 10 14 23 21 7 22 -51 1 -72 6 -88 27 -86 15 1 17 13 17 99 1
77 -2 98 -13 98 -8 0 -11 5 -8 10 3 6 3 10 0 10 -4 0 -9 -9 -12 -20z"/>
<path d="M5420 9910 c0 -6 -4 -8 -10 -5 -5 3 -10 -1 -10 -11 0 -13 -3 -14 -13
-5 -16 13 -27 5 -27 -21 0 -12 7 -18 21 -18 11 0 18 -4 14 -9 -3 -5 -1 -12 5
-16 6 -4 7 -11 3 -18 -11 -19 -9 -71 5 -85 10 -11 14 -11 25 0 15 16 16 40 2
50 -6 5 -6 8 1 8 12 0 12 29 0 48 -4 7 -2 12 5 12 10 0 10 3 1 12 -7 7 -8 17
-3 27 6 10 4 21 -5 29 -9 8 -14 9 -14 2z"/>
<path d="M5546 9905 c-3 -9 -10 -13 -16 -10 -5 3 -10 1 -10 -5 0 -7 -7 -10
-15 -6 -10 3 -15 -1 -15 -13 0 -13 7 -18 23 -17 20 1 22 -3 20 -43 -2 -24 2
-50 8 -57 7 -8 6 -14 -2 -20 -8 -5 -9 -3 -4 6 5 9 4 11 -4 6 -9 -6 -9 -11 -1
-21 9 -11 17 -11 35 -3 20 9 22 14 14 29 -5 11 -7 19 -3 19 3 0 0 8 -7 17 -9
10 -9 14 -2 10 9 -6 12 3 10 30 -1 21 1 43 4 48 4 6 -1 18 -11 28 -16 16 -18
16 -24 2z"/>
<path d="M5813 9905 c-6 -7 -10 -15 -7 -18 3 -2 -6 -3 -20 -2 -30 4 -30 -28 1
-33 16 -2 20 -10 19 -37 -1 -19 -5 -35 -11 -35 -7 0 -7 -3 0 -8 6 -4 10 -13
11 -19 1 -7 2 -19 3 -27 0 -8 10 -14 20 -13 16 1 18 4 8 16 -7 9 -8 12 -1 8
14 -8 13 71 0 92 -6 9 -5 12 2 7 7 -4 10 6 8 29 -2 42 -16 59 -33 40z"/>
<path d="M6189 9909 c-14 -8 -19 -27 -22 -74 -1 -16 -6 -36 -11 -44 -7 -10 -6
-12 4 -6 10 6 12 3 8 -12 -3 -11 1 -31 8 -44 7 -13 13 -18 14 -11 0 10 4 9 16
-3 13 -12 19 -13 24 -4 4 6 13 9 18 5 13 -8 41 43 35 62 -3 7 0 19 7 26 8 11
8 16 0 21 -7 4 -10 16 -7 26 3 11 0 19 -6 19 -8 0 -8 3 1 9 10 6 10 10 -1 19
-18 15 -71 22 -88 11z m45 -51 c-3 -4 0 -8 7 -8 8 0 8 -4 -1 -15 -9 -11 -9
-15 -1 -15 8 0 9 -5 2 -18 -7 -13 -6 -23 1 -30 15 -15 -10 -16 -32 -2 -13 8
-13 10 0 10 10 0 11 3 3 11 -6 6 -8 23 -3 45 4 19 6 34 3 34 -2 0 -1 5 3 11 4
8 9 7 15 -2 4 -7 5 -17 3 -21z m-9 -108 c3 -5 1 -10 -4 -10 -6 0 -11 5 -11 10
0 6 2 10 4 10 3 0 8 -4 11 -10z"/>
<path d="M6770 9911 c0 -6 -7 -11 -15 -11 -8 0 -15 -4 -15 -10 0 -5 -7 -7 -15
-4 -10 4 -15 0 -15 -15 0 -15 6 -21 21 -21 19 0 21 -4 17 -50 -3 -32 -1 -50 6
-50 7 0 7 -3 -1 -8 -15 -9 -3 -28 17 -27 18 0 30 44 18 68 -5 10 -5 17 1 17 7
0 7 9 1 25 -6 16 -6 25 1 25 6 0 6 6 -1 19 -7 14 -7 20 1 23 7 2 5 9 -5 17
-11 9 -16 10 -16 2z"/>
<path d="M5940 9895 c0 -8 -5 -15 -11 -15 -5 0 -7 6 -3 13 4 6 -2 3 -13 -8
-20 -20 -21 -35 -2 -35 6 0 17 -6 25 -14 11 -11 11 -16 1 -19 -9 -4 -8 -6 2
-6 11 -1 11 -4 0 -18 -11 -13 -11 -17 -1 -21 10 -3 10 -7 1 -18 -8 -10 -8 -17
3 -26 21 -20 35 -19 41 2 3 13 1 18 -6 13 -7 -4 -7 0 1 9 9 11 10 18 2 23 -6
3 -7 12 -3 18 11 19 12 57 1 57 -6 0 -5 6 3 16 10 13 10 17 0 24 -11 6 -11 9
0 13 8 3 2 6 -13 6 -19 1 -28 -4 -28 -14z"/>
<path d="M6837 9869 c7 -7 15 -10 18 -7 3 3 -2 9 -12 12 -14 6 -15 5 -6 -5z"/>
<path d="M6834 9833 c0 -10 6 -21 11 -25 6 -5 6 -8 -1 -8 -6 0 -11 -7 -11 -15
0 -8 5 -15 10 -15 5 0 3 -8 -4 -17 -10 -11 -10 -14 -1 -9 7 4 12 2 12 -4 0 -6
6 -17 13 -25 11 -11 15 -10 25 6 16 25 15 29 -5 30 -12 0 -13 2 -5 6 10 4 10
8 0 21 -11 13 -11 14 0 8 11 -6 11 -4 3 10 -5 11 -12 27 -15 37 -3 9 -12 17
-20 17 -7 0 -13 -8 -12 -17z"/>
<path d="M5085 9665 c9 -50 10 -163 3 -158 -10 6 -10 -9 0 -24 7 -10 12 -10
26 0 14 10 18 29 20 83 3 86 -2 104 -24 104 -10 0 -21 6 -24 13 -3 6 -4 -1 -1
-18z"/>
<path d="M5202 9666 c-14 -19 -22 -22 -31 -13 -6 6 -11 7 -12 2 0 -6 -2 -17
-4 -27 -2 -12 3 -15 21 -13 19 2 22 0 13 -11 -9 -11 -8 -14 1 -14 8 0 10 -3 7
-7 -4 -3 -1 -13 6 -21 8 -10 8 -13 0 -9 -20 12 -11 -59 9 -72 10 -6 18 -8 19
-4 0 5 2 15 4 23 7 38 7 56 0 74 -5 11 -3 26 4 38 7 12 8 17 2 13 -15 -8 -14
8 1 23 9 9 7 13 -5 18 -9 3 -14 10 -11 15 11 19 -5 8 -24 -15z"/>
<path d="M5360 9681 c0 -8 -7 -11 -15 -7 -8 3 -14 0 -12 -6 1 -7 -7 -12 -18
-13 -13 0 -21 -8 -23 -22 -3 -18 1 -21 17 -18 20 4 21 0 19 -58 -2 -70 4 -87
30 -81 15 4 17 18 16 105 -1 55 -4 102 -8 106 -3 3 -6 1 -6 -6z"/>
<path d="M5450 9676 c0 -10 -4 -15 -9 -12 -5 3 -14 -8 -20 -24 -7 -21 -7 -30
1 -30 6 0 5 -6 -3 -16 -10 -13 -10 -17 2 -25 12 -7 12 -9 -1 -9 -13 0 -13 -1
0 -10 13 -9 13 -10 0 -10 -9 0 -11 -3 -5 -8 6 -4 10 -13 11 -19 2 -28 4 -33
15 -33 5 0 7 6 4 13 -4 6 0 4 7 -5 22 -26 78 -8 85 28 7 37 1 142 -8 147 -44
25 -49 26 -49 16 0 -8 -5 -8 -15 1 -12 10 -15 9 -15 -4z m50 -52 c0 -9 -5 -12
-12 -8 -7 5 -8 3 -3 -7 5 -7 10 -32 11 -54 2 -34 -1 -41 -17 -42 -10 -1 -19 2
-19 8 0 5 5 9 11 9 6 0 7 5 2 13 -11 17 -10 91 2 99 12 9 25 0 25 -18z"/>
<path d="M5874 9681 c-3 -3 -9 -6 -13 -6 -29 0 -48 -72 -27 -104 6 -10 6 -12
-2 -7 -7 4 -12 1 -12 -8 0 -8 4 -17 9 -20 5 -3 7 -15 4 -26 -4 -14 0 -20 11
-20 10 0 14 -5 11 -11 -9 -13 27 -8 37 6 5 6 8 5 8 -2 0 -7 7 -10 15 -7 8 4
12 10 9 15 -3 5 3 9 13 10 11 0 13 3 5 6 -10 4 -9 9 5 20 10 8 12 11 4 7 -11
-5 -13 -2 -8 16 3 13 1 31 -6 39 -8 10 -8 13 -1 8 7 -4 14 0 18 8 3 8 10 15
16 15 24 0 35 -27 34 -87 0 -47 3 -60 12 -52 8 7 14 6 17 -3 3 -8 6 -6 6 5 1
10 6 15 11 12 6 -3 10 -2 10 3 0 6 -7 12 -15 16 -8 3 -12 12 -9 21 3 8 11 12
16 9 7 -4 7 0 1 12 -5 11 -8 40 -7 67 2 26 -2 47 -7 47 -6 0 -7 6 -3 13 4 6
-4 2 -18 -11 -13 -12 -27 -20 -30 -16 -4 3 -11 -4 -17 -15 -7 -12 -17 -18 -26
-14 -11 4 -13 9 -5 18 12 15 3 25 -22 25 -11 0 -17 4 -14 8 6 10 -21 12 -30 3z
m21 -48 c10 -23 11 -64 2 -86 -4 -10 -2 -17 6 -17 8 0 6 -4 -3 -10 -23 -15
-30 -12 -30 10 0 11 6 20 13 20 6 0 4 5 -6 11 -10 6 -14 15 -10 22 4 6 6 24 5
39 -3 31 12 38 23 11z"/>
<path d="M6270 9681 c0 -5 -9 -11 -19 -14 -16 -4 -19 -13 -18 -51 1 -25 -2
-46 -8 -46 -5 0 -3 -5 5 -10 8 -5 10 -10 5 -10 -6 0 -11 -9 -11 -20 0 -11 6
-20 13 -20 7 0 10 -7 6 -17 -4 -11 -3 -14 5 -9 7 4 12 4 12 -1 0 -4 13 -8 29
-8 16 -1 27 3 25 7 -3 4 5 8 17 8 19 0 20 2 8 17 -10 11 -10 14 -1 9 7 -4 12
-2 12 7 0 7 7 14 15 14 11 0 12 -4 4 -14 -9 -10 -8 -13 1 -13 8 0 11 -3 7 -6
-3 -3 0 -12 6 -19 9 -10 15 -10 26 -1 12 8 13 8 7 -2 -5 -8 -1 -11 11 -9 31 6
50 17 51 30 10 74 9 97 -1 90 -8 -4 -7 -1 1 9 19 24 1 68 -28 68 -6 0 -8 5 -4
11 5 8 1 8 -14 0 -15 -8 -23 -8 -28 0 -5 8 -10 6 -16 -5 -5 -9 -14 -13 -21 -9
-8 5 -8 2 1 -9 10 -13 10 -17 -2 -21 -8 -3 -20 2 -28 11 -11 13 -11 14 1 7 10
-5 12 -4 7 3 -4 7 -14 12 -22 12 -8 0 -14 6 -14 13 0 8 -4 7 -10 -3 -6 -10
-10 -11 -10 -2 0 6 -4 12 -10 12 -5 0 -10 -4 -10 -9z m29 -63 c-8 -14 -8 -18
0 -14 11 7 8 -45 -5 -65 -5 -8 -3 -9 6 -4 8 5 11 3 8 -6 -3 -8 -11 -14 -19
-14 -10 0 -14 13 -15 40 -1 22 -2 45 -4 50 -6 18 11 44 26 38 10 -4 11 -10 3
-25z m139 10 c-10 -8 -11 -11 0 -15 10 -4 10 -8 1 -19 -9 -11 -9 -14 1 -14 9
0 9 -4 -1 -17 -12 -15 -12 -16 1 -8 13 8 13 7 1 -8 -11 -14 -11 -17 0 -17 11
0 11 -2 -1 -10 -25 -16 -32 -11 -28 20 3 17 0 30 -6 30 -6 0 -4 5 4 10 8 5 10
10 4 10 -6 0 -9 12 -6 29 3 23 8 28 24 23 15 -4 17 -7 6 -14z m-72 -16 c8 -5
7 -11 -4 -22 -14 -13 -15 -12 -9 4 6 14 4 17 -8 12 -9 -3 -13 -2 -10 4 7 12
16 12 31 2z m14 -46 c0 -9 -30 -14 -35 -6 -4 6 3 10 14 10 12 0 21 -2 21 -4z"/>
<path d="M6558 9676 c-10 -7 -14 -17 -10 -21 4 -4 -3 -5 -15 -2 -13 3 -23 1
-23 -3 0 -5 -3 -16 -6 -24 -4 -12 -2 -15 9 -10 22 8 31 -14 32 -78 1 -62 9
-78 28 -59 14 14 18 191 4 191 -4 0 -5 5 -2 10 8 13 4 12 -17 -4z"/>
<path d="M6809 9680 c-7 -5 -18 -6 -24 -3 -5 4 -7 3 -3 -2 4 -4 2 -17 -4 -29
-17 -31 -11 -132 9 -156 13 -14 19 -16 25 -7 6 9 8 9 8 0 0 -7 7 -13 16 -13
18 0 44 23 44 40 0 6 5 8 10 5 6 -3 10 -1 10 4 0 6 -8 11 -17 12 -11 0 -13 3
-5 6 7 3 12 25 12 57 0 41 -5 57 -20 71 -24 22 -42 26 -61 15z m37 -77 c-1
-18 -4 -33 -8 -33 -5 0 -8 -5 -8 -11 0 -5 4 -8 9 -4 6 3 8 -4 6 -16 -10 -48
-28 -36 -31 20 -1 22 -5 45 -10 53 -6 11 -5 11 8 0 14 -11 16 -11 11 6 -3 12
1 19 9 19 10 0 14 -12 14 -34z"/>
<path d="M5599 9661 c-15 -11 -29 -18 -31 -15 -3 3 -8 -2 -11 -11 -4 -8 -1
-16 6 -16 7 -1 19 -2 27 -3 8 0 13 -8 12 -16 -10 -41 -10 -50 -1 -55 5 -4 6
-12 2 -18 -19 -31 -1 -53 32 -41 13 5 13 9 3 22 -10 12 -10 14 0 8 6 -4 12 -3
12 3 0 5 -4 12 -9 15 -10 7 -9 25 2 44 5 7 3 12 -5 12 -10 0 -10 2 0 9 8 4 14
12 14 16 0 4 -6 12 -14 16 -7 5 -8 9 -2 9 6 0 11 7 11 15 0 8 -4 12 -8 9 -4
-2 -9 1 -11 7 -2 6 -14 2 -29 -10z"/>
<path d="M5742 9666 c-12 -7 -20 -15 -16 -18 3 -4 -3 -4 -13 -2 -13 4 -20 0
-20 -10 0 -9 10 -19 21 -22 18 -4 21 -12 21 -57 -1 -71 4 -90 20 -77 9 8 14 7
18 -2 3 -7 4 10 3 37 -2 28 1 58 6 67 5 10 4 20 -4 24 -7 5 -8 3 -3 -6 6 -9 4
-11 -5 -5 -10 6 -9 11 5 22 11 7 14 13 8 13 -6 0 -9 8 -6 19 6 25 -7 32 -35
17z"/>
<path d="M6167 9674 c-4 -4 -17 -9 -29 -11 -19 -3 -51 -33 -43 -41 2 -2 11 -5
22 -6 15 -2 18 -14 21 -70 2 -52 6 -67 16 -63 8 3 17 2 22 -3 5 -5 9 23 9 66
0 40 -4 74 -9 74 -5 0 -4 6 2 13 11 13 1 52 -11 41z"/>
<path d="M6685 9663 c-14 -17 -22 -20 -32 -11 -7 6 -13 9 -14 7 -6 -31 -6 -39
2 -40 5 -1 15 -2 22 -3 6 0 12 -10 12 -21 -1 -11 4 -23 10 -27 7 -5 7 -11 0
-15 -24 -18 0 -88 26 -78 17 6 22 35 6 35 -5 0 -5 6 2 13 11 14 8 47 -5 69 -4
7 -3 8 4 4 7 -4 12 -3 12 3 0 5 -5 13 -10 16 -6 4 -7 12 -3 18 11 17 13 38 3
32 -5 -3 -10 0 -12 7 -3 8 -11 5 -23 -9z"/>
<path d="M6908 9628 c2 -10 8 -15 13 -12 14 8 11 31 -5 31 -8 0 -11 -8 -8 -19z"/>
<path d="M6948 9542 c-5 -36 4 -66 20 -70 8 -1 11 2 8 7 -4 5 0 12 6 14 9 4
10 8 2 14 -17 13 -24 41 -11 46 6 2 5 6 -5 9 -12 5 -17 -1 -20 -20z"/>
<path d="M5130 9441 c0 -7 -5 -9 -10 -6 -6 4 -9 1 -8 -6 2 -7 -4 -13 -12 -14
-8 0 -15 -7 -15 -15 0 -8 6 -14 13 -12 8 1 11 -2 7 -8 -3 -5 -3 -10 2 -10 4 0
8 -29 7 -64 -1 -58 0 -64 17 -61 33 7 39 14 29 40 -7 18 -6 25 3 25 6 0 3 7
-7 15 -20 15 -20 15 0 15 14 0 16 2 5 9 -11 7 -11 9 0 14 11 4 11 6 1 6 -8 1
-10 6 -5 14 13 22 11 35 -8 53 -12 11 -19 13 -19 5z"/>
<path d="M5270 9440 c0 -5 -7 -10 -15 -10 -8 0 -15 -4 -15 -9 0 -6 -8 -8 -19
-6 -14 3 -18 -1 -14 -16 3 -10 9 -16 14 -13 5 3 9 -1 9 -8 0 -10 3 -9 11 2 8
11 9 6 7 -22 -2 -21 1 -40 7 -42 7 -3 7 -5 -1 -5 -12 -1 -7 -58 6 -66 5 -3 14
-3 22 0 10 4 13 21 10 61 -2 43 0 54 10 48 10 -6 9 -3 -1 9 -7 9 -11 24 -7 32
3 8 0 15 -7 15 -8 0 -6 4 3 10 11 7 11 10 2 10 -7 0 -10 5 -7 10 3 6 1 10 -4
10 -6 0 -11 -4 -11 -10z"/>
<path d="M7004 9421 c5 -8 3 -12 -5 -10 -25 3 -54 -2 -41 -8 6 -2 12 -11 12
-18 0 -13 39 -18 41 -5 0 3 2 13 4 22 2 10 -2 21 -7 25 -7 4 -8 1 -4 -6z"/>
<path d="M7012 9368 c-7 -9 -10 -23 -6 -32 3 -9 1 -16 -5 -16 -6 0 -8 -7 -5
-15 4 -8 11 -12 18 -8 6 4 5 0 -2 -9 -17 -21 1 -60 23 -52 21 9 19 17 -2 10
-15 -5 -15 -4 1 9 16 12 17 19 8 39 -7 17 -7 27 1 35 8 8 8 11 0 11 -7 0 -13
10 -15 22 -3 19 -5 19 -16 6z"/>
<path d="M7024 9192 c-5 -18 -9 -20 -15 -10 -7 10 -9 11 -9 0 0 -7 -4 -11 -9
-7 -5 3 -13 0 -17 -6 -8 -13 15 -31 32 -25 7 3 11 -17 10 -60 -1 -35 3 -64 7
-64 5 0 6 -4 3 -8 -2 -4 4 -8 15 -8 20 0 21 4 21 111 0 95 -1 102 -11 86 -7
-11 -9 -11 -14 0 -4 10 -8 6 -13 -9z"/>
<path d="M7107 9053 c-9 -8 4 -33 14 -27 5 3 9 0 9 -7 0 -7 3 -9 7 -6 3 4 11
0 18 -9 10 -14 12 -14 26 2 12 16 12 17 -3 12 -14 -6 -33 14 -30 32 1 8 -35
10 -41 3z"/>
</g>
</svg>
